<svg width="532" height="532" viewBox="0 0 532 532" fill="none"
  xmlns="http://www.w3.org/2000/svg">
  <g filter="url(#filter0_d_504_5)">
    <rect x="10" y="6" width="512" height="512" rx="110" fill="url(#paint0_linear_504_5)"/>
    <path d="M215.375 231.375L264 203.25C265.25 202.625 266.75 202.625 268 203.25L316.625 231.375C317.875 232.125 318.625 233.375 318.625 234.75V291C318.625 292.375 317.875 293.625 316.625 294.375L268 322.5C266.75 323.125 265.25 323.125 264 322.5L215.375 294.375C214.125 293.625 213.375 292.375 213.375 291V234.75C213.375 233.375 214.125 232.125 215.375 231.375ZM392.5 257C394.625 260.625 394.625 264.875 392.5 268.625L334.375 369C332.25 372.75 328.5 374.5 324.125 374.5H207.875C203.5 374.5 199.75 372.625 197.625 369L139.5 268.625C137.375 265 137.375 260.375 139.5 256.75L197.625 155.75C199.75 152.25 203.5 149.5 207.875 149.5H324.125C328.5 149.5 332.25 152.25 334.375 155.75L392.5 257ZM344.375 305.75V220.125C344.375 218.625 343.5 217.25 342.125 216.5L268 173.875C266.75 173.125 265.125 173.125 263.875 173.875L189.875 216.5C188.5 217.25 187.625 218.625 187.625 220.125V305.75C187.625 307.125 188.5 308.5 189.875 309.25L264 351.875C265.25 352.625 266.875 352.625 268.125 351.875L342.125 309.25C343.5 308.5 344.375 307.125 344.375 305.75Z" fill="white"/>
  </g>
  <defs>
    <filter id="filter0_d_504_5" x="0" y="0" width="532" height="532" filterUnits="userSpaceOnUse" color-interpolation-filters="sRGB">
      <feFlood flood-opacity="0" result="BackgroundImageFix"/>
      <feColorMatrix in="SourceAlpha" type="matrix" values="0 0 0 0 0 0 0 0 0 0 0 0 0 0 0 0 0 0 127 0" result="hardAlpha"/>
      <feOffset dy="4"/>
      <feGaussianBlur stdDeviation="5"/>
      <feColorMatrix type="matrix" values="0 0 0 0 0 0 0 0 0 0 0 0 0 0 0 0 0 0 0.2 0"/>
      <feBlend mode="normal" in2="BackgroundImageFix" result="effect1_dropShadow_504_5"/>
      <feBlend mode="normal" in="SourceGraphic" in2="effect1_dropShadow_504_5" result="shape"/>
    </filter>
    <linearGradient id="paint0_linear_504_5" x1="266" y1="6" x2="266" y2="518" gradientUnits="userSpaceOnUse">
      <stop stop-color="#BF7D7D"/>
      <stop offset="1" stop-color="#782424"/>
    </linearGradient>
  </defs>
</svg>
